<mxfile host="Electron" modified="2023-04-28T09:41:09.596Z" agent="Mozilla/5.0 (X11; Linux x86_64) AppleWebKit/537.36 (KHTML, like Gecko) draw.io/21.2.1 Chrome/112.0.5615.87 Electron/24.1.2 Safari/537.36" etag="mSvtA29OKgzu0YtlKlRV" version="21.2.1" type="device">
  <diagram id="R2lEEEUBdFMjLlhIrx00" name="Page-1">
    <mxGraphModel dx="950" dy="635" grid="1" gridSize="10" guides="1" tooltips="1" connect="1" arrows="1" fold="1" page="1" pageScale="1" pageWidth="100" pageHeight="100" background="#424242" math="0" shadow="0" extFonts="Permanent Marker^https://fonts.googleapis.com/css?family=Permanent+Marker">
      <root>
        <mxCell id="0" />
        <mxCell id="1" parent="0" />
        <mxCell id="CBCMD9t05b2a7RlSfvx8-5" value="Details" style="rounded=0;whiteSpace=wrap;html=1;hachureGap=4;fillColor=#FFE599;strokeColor=#B5739D;fontColor=#575757;strokeWidth=3;fontSize=21;fontStyle=1" parent="1" vertex="1">
          <mxGeometry x="120" y="310" width="160" height="50" as="geometry" />
        </mxCell>
        <mxCell id="CBCMD9t05b2a7RlSfvx8-10" style="edgeStyle=orthogonalEdgeStyle;rounded=0;orthogonalLoop=1;jettySize=auto;html=1;entryX=0;entryY=0.5;entryDx=0;entryDy=0;endArrow=ERoneToMany;startSize=14;endSize=14;sourcePerimeterSpacing=8;targetPerimeterSpacing=8;endFill=0;labelBackgroundColor=#F4F1DE;strokeColor=#67AB9F;fontColor=#393C56;startArrow=ERone;startFill=0;strokeWidth=3;exitX=0.5;exitY=1;exitDx=0;exitDy=0;fillColor=#cce5ff;" parent="1" source="CBCMD9t05b2a7RlSfvx8-6" target="CBCMD9t05b2a7RlSfvx8-22" edge="1">
          <mxGeometry relative="1" as="geometry" />
        </mxCell>
        <mxCell id="CBCMD9t05b2a7RlSfvx8-6" value="Entity" style="rounded=0;whiteSpace=wrap;html=1;hachureGap=4;fillColor=#b1ddf0;strokeColor=#10739e;strokeWidth=3;fontColor=#575757;fontSize=21;fontStyle=1" parent="1" vertex="1">
          <mxGeometry x="320" y="30" width="160" height="50" as="geometry" />
        </mxCell>
        <mxCell id="CBCMD9t05b2a7RlSfvx8-11" value="Entity" style="rounded=0;whiteSpace=wrap;html=1;hachureGap=4;fillColor=#FFE599;strokeColor=#B5739D;strokeWidth=3;fontColor=#575757;fontSize=21;fontStyle=1" parent="1" vertex="1">
          <mxGeometry x="510" y="310" width="160" height="50" as="geometry" />
        </mxCell>
        <mxCell id="CBCMD9t05b2a7RlSfvx8-12" style="edgeStyle=orthogonalEdgeStyle;rounded=0;orthogonalLoop=1;jettySize=auto;html=1;entryX=0.5;entryY=0;entryDx=0;entryDy=0;endArrow=ERoneToMany;startSize=14;endSize=14;sourcePerimeterSpacing=8;targetPerimeterSpacing=8;endFill=0;labelBackgroundColor=#F4F1DE;strokeColor=#67AB9F;fontColor=#393C56;startArrow=ERone;startFill=0;strokeWidth=3;elbow=vertical;exitX=0.5;exitY=1;exitDx=0;exitDy=0;fillColor=#cce5ff;" parent="1" source="CBCMD9t05b2a7RlSfvx8-22" target="CBCMD9t05b2a7RlSfvx8-5" edge="1">
          <mxGeometry relative="1" as="geometry">
            <mxPoint x="560" y="160" as="sourcePoint" />
            <mxPoint x="420" y="230" as="targetPoint" />
          </mxGeometry>
        </mxCell>
        <mxCell id="CBCMD9t05b2a7RlSfvx8-22" value="" style="ellipse;whiteSpace=wrap;html=1;rounded=1;hachureGap=4;strokeColor=#994C00;strokeWidth=3;fontSize=21;fillColor=#ffcc99;direction=south;" parent="1" vertex="1">
          <mxGeometry x="370" y="170" width="60" height="60" as="geometry" />
        </mxCell>
        <mxCell id="CBCMD9t05b2a7RlSfvx8-25" style="edgeStyle=orthogonalEdgeStyle;rounded=0;orthogonalLoop=1;jettySize=auto;html=1;entryX=0.5;entryY=0;entryDx=0;entryDy=0;endArrow=ERoneToMany;startSize=14;endSize=14;sourcePerimeterSpacing=8;targetPerimeterSpacing=8;endFill=0;labelBackgroundColor=#F4F1DE;strokeColor=#67AB9F;fontColor=#393C56;startArrow=ERone;startFill=0;strokeWidth=3;elbow=vertical;exitX=0.5;exitY=0;exitDx=0;exitDy=0;fillColor=#cce5ff;" parent="1" source="CBCMD9t05b2a7RlSfvx8-22" target="CBCMD9t05b2a7RlSfvx8-11" edge="1">
          <mxGeometry relative="1" as="geometry">
            <mxPoint x="370" y="230" as="sourcePoint" />
            <mxPoint x="260" y="320" as="targetPoint" />
          </mxGeometry>
        </mxCell>
        <mxCell id="CBCMD9t05b2a7RlSfvx8-26" value="Entity" style="rounded=0;whiteSpace=wrap;html=1;hachureGap=4;fillColor=#FFE599;strokeColor=#B5739D;strokeWidth=3;fontColor=#575757;fontSize=21;fontStyle=1" parent="1" vertex="1">
          <mxGeometry x="320" y="310" width="160" height="50" as="geometry" />
        </mxCell>
        <mxCell id="CBCMD9t05b2a7RlSfvx8-27" style="edgeStyle=orthogonalEdgeStyle;rounded=0;orthogonalLoop=1;jettySize=auto;html=1;entryX=0.5;entryY=0;entryDx=0;entryDy=0;endArrow=ERoneToMany;startSize=14;endSize=14;sourcePerimeterSpacing=8;targetPerimeterSpacing=8;endFill=0;labelBackgroundColor=#F4F1DE;strokeColor=#67AB9F;fontColor=#393C56;startArrow=ERone;startFill=0;strokeWidth=3;elbow=vertical;exitX=1;exitY=0.5;exitDx=0;exitDy=0;fillColor=#cce5ff;" parent="1" source="CBCMD9t05b2a7RlSfvx8-22" target="CBCMD9t05b2a7RlSfvx8-26" edge="1">
          <mxGeometry relative="1" as="geometry">
            <mxPoint x="430" y="200" as="sourcePoint" />
            <mxPoint x="600" y="300" as="targetPoint" />
          </mxGeometry>
        </mxCell>
        <mxCell id="CBCMD9t05b2a7RlSfvx8-29" value="" style="edgeStyle=none;orthogonalLoop=1;jettySize=auto;html=1;rounded=0;strokeColor=#994C00;strokeWidth=3;fontSize=21;fontColor=#575757;startArrow=none;startFill=0;endArrow=none;endFill=0;startSize=14;endSize=14;sourcePerimeterSpacing=8;targetPerimeterSpacing=8;fillColor=#60a917;elbow=vertical;exitX=0;exitY=1;exitDx=0;exitDy=0;entryX=1;entryY=0;entryDx=0;entryDy=0;" parent="1" source="CBCMD9t05b2a7RlSfvx8-22" target="CBCMD9t05b2a7RlSfvx8-22" edge="1">
          <mxGeometry width="120" relative="1" as="geometry">
            <mxPoint x="440" y="160" as="sourcePoint" />
            <mxPoint x="490" y="160" as="targetPoint" />
            <Array as="points" />
          </mxGeometry>
        </mxCell>
        <mxCell id="CBCMD9t05b2a7RlSfvx8-30" value="" style="edgeStyle=none;orthogonalLoop=1;jettySize=auto;html=1;rounded=0;strokeColor=#994C00;strokeWidth=3;fontSize=21;fontColor=#575757;startArrow=none;startFill=0;endArrow=none;endFill=0;startSize=14;endSize=14;sourcePerimeterSpacing=8;targetPerimeterSpacing=8;fillColor=#60a917;elbow=vertical;exitX=1;exitY=1;exitDx=0;exitDy=0;entryX=0;entryY=0;entryDx=0;entryDy=0;" parent="1" source="CBCMD9t05b2a7RlSfvx8-22" target="CBCMD9t05b2a7RlSfvx8-22" edge="1">
          <mxGeometry width="120" relative="1" as="geometry">
            <mxPoint x="450" y="170" as="sourcePoint" />
            <mxPoint x="500" y="170" as="targetPoint" />
            <Array as="points" />
          </mxGeometry>
        </mxCell>
      </root>
    </mxGraphModel>
  </diagram>
</mxfile>
